<svg width="1617" height="1333" viewBox="0 0 1617 1333" fill="none" xmlns="http://www.w3.org/2000/svg">
<path d="M590.848 1251.04C584.235 1251.04 577.928 1249.62 571.93 1246.77C566.008 1243.85 560.817 1240.08 556.357 1235.47C551.973 1230.77 548.782 1225.81 546.782 1220.58V1288.53C546.782 1291.37 545.359 1292.8 542.514 1292.8C541.284 1292.8 540.245 1292.37 539.399 1291.53C538.553 1290.76 538.13 1289.76 538.13 1288.53V1137.3C538.13 1136.07 538.553 1135.07 539.399 1134.3C540.245 1133.45 541.284 1133.03 542.514 1133.03C545.359 1133.03 546.782 1134.45 546.782 1137.3V1163.02C549.166 1157.87 552.512 1153.02 556.818 1148.49C561.202 1143.87 566.354 1140.14 572.276 1137.3C578.198 1134.37 584.773 1132.91 592.002 1132.91C602.384 1132.91 611.497 1135.64 619.341 1141.1C627.186 1146.49 633.261 1153.6 637.568 1162.44C641.951 1171.29 644.143 1180.86 644.143 1191.17C644.143 1201.47 641.874 1211.2 637.337 1220.35C632.8 1229.51 626.532 1236.93 618.534 1242.62C610.536 1248.23 601.307 1251.04 590.848 1251.04ZM635.491 1191.28C635.491 1182.44 633.684 1174.25 630.07 1166.71C626.455 1159.18 621.379 1153.1 614.843 1148.49C608.306 1143.87 600.654 1141.56 591.887 1141.56C582.658 1141.56 574.66 1143.99 567.892 1148.83C561.125 1153.6 555.895 1159.87 552.204 1167.64C548.589 1175.33 546.782 1183.59 546.782 1192.44C546.782 1201.13 548.666 1209.28 552.435 1216.89C556.203 1224.51 561.394 1230.66 568.008 1235.35C574.622 1240.04 582.235 1242.39 590.848 1242.39C599.615 1242.39 607.344 1239.96 614.035 1235.12C620.726 1230.2 625.955 1223.85 629.724 1216.09C633.569 1208.32 635.491 1200.05 635.491 1191.28ZM768.267 1132.91C771.189 1132.91 772.65 1134.37 772.65 1137.3L772.304 1247.23H772.419C772.419 1248.46 771.996 1249.5 771.151 1250.35C770.305 1251.19 769.266 1251.61 768.036 1251.61C766.805 1251.61 765.767 1251.19 764.921 1250.35C764.075 1249.5 763.652 1248.46 763.652 1247.23V1247.12L763.768 1223.01C759.307 1230.85 752.886 1237.54 744.503 1243.08C736.198 1248.54 727.084 1251.27 717.164 1251.27C709.473 1251.27 702.321 1249.69 695.707 1246.54C689.094 1243.31 683.326 1238.93 678.404 1233.39C673.482 1227.85 669.637 1221.55 666.868 1214.47C664.1 1207.4 662.715 1200.01 662.715 1192.32C662.715 1184.63 664.061 1177.25 666.753 1170.17C669.521 1163.02 673.367 1156.68 678.289 1151.14C683.287 1145.53 689.132 1141.1 695.823 1137.87C702.513 1134.64 709.819 1133.03 717.74 1133.03C724.739 1133.03 731.16 1134.68 737.005 1137.99C742.927 1141.22 748.156 1145.33 752.693 1150.33C757.308 1155.33 761.038 1160.44 763.883 1165.67L763.998 1137.3C763.998 1134.37 765.421 1132.91 768.267 1132.91ZM763.076 1191.98C763.076 1183.13 761.115 1174.9 757.192 1167.29C753.347 1159.68 748.002 1153.52 741.158 1148.83C734.39 1144.06 726.623 1141.68 717.856 1141.68C709.012 1141.68 701.052 1144.06 693.977 1148.83C686.979 1153.6 681.442 1159.87 677.366 1167.64C673.367 1175.33 671.367 1183.55 671.367 1192.32C671.367 1201.09 673.367 1209.32 677.366 1217.01C681.365 1224.62 686.825 1230.81 693.746 1235.58C700.668 1240.27 708.474 1242.62 717.164 1242.62C725.931 1242.62 733.775 1240.23 740.696 1235.47C747.618 1230.7 753.078 1224.47 757.077 1216.78C761.076 1209.09 763.076 1200.82 763.076 1191.98ZM809.218 1161.06C811.371 1156.14 814.409 1151.56 818.331 1147.33C822.253 1143.03 826.945 1139.53 832.405 1136.84C837.942 1134.14 844.133 1132.8 850.977 1132.8C852.977 1132.8 854.707 1133.07 856.168 1133.61C857.629 1134.14 858.36 1135.37 858.36 1137.3C858.36 1140.14 856.937 1141.56 854.092 1141.56C853.323 1141.56 852.592 1141.53 851.9 1141.45C851.208 1141.37 850.516 1141.33 849.824 1141.33C843.441 1141.33 837.75 1142.91 832.751 1146.06C827.752 1149.14 823.484 1153.29 819.946 1158.52C816.486 1163.75 813.832 1169.52 811.987 1175.83C810.141 1182.13 809.218 1188.52 809.218 1194.97V1247C809.218 1248.23 808.795 1249.27 807.949 1250.12C807.103 1250.96 806.065 1251.38 804.835 1251.38C803.604 1251.38 802.566 1250.96 801.72 1250.12C800.874 1249.27 800.451 1248.23 800.451 1247V1138.22C800.451 1136.99 800.874 1135.99 801.72 1135.22C802.566 1134.37 803.604 1133.95 804.835 1133.95C806.065 1133.95 807.103 1134.37 807.949 1135.22C808.795 1135.99 809.218 1136.99 809.218 1138.22V1161.06ZM917.192 1251.38C909.194 1251.38 903.157 1248.85 899.081 1243.77C895.005 1238.7 892.967 1232.12 892.967 1224.04V1223.24L893.198 1141.91H869.665C868.434 1141.91 867.396 1141.53 866.55 1140.76C865.704 1139.91 865.281 1138.87 865.281 1137.64C865.281 1136.41 865.704 1135.37 866.55 1134.53C867.396 1133.68 868.434 1133.26 869.665 1133.26H893.313V1103.38C893.313 1102.15 893.736 1101.11 894.582 1100.27C895.428 1099.42 896.466 1099 897.697 1099C898.927 1099 899.927 1099.42 900.696 1100.27C901.542 1101.11 901.965 1102.15 901.965 1103.38V1133.26H926.19C929.035 1133.26 930.458 1134.68 930.458 1137.53C930.458 1138.76 930.035 1139.8 929.189 1140.64C928.42 1141.49 927.42 1141.91 926.19 1141.91H901.849L901.619 1223.24V1223.35C901.619 1228.97 902.734 1233.58 904.964 1237.2C907.194 1240.81 911.001 1242.62 916.384 1242.62C921.691 1242.62 926.42 1241.04 930.573 1237.89C931.496 1237.27 932.38 1236.96 933.226 1236.96C934.457 1236.96 935.495 1237.39 936.341 1238.23C937.187 1239.08 937.61 1240.12 937.61 1241.35C937.61 1242.73 936.995 1243.89 935.764 1244.81C933.303 1246.73 930.496 1248.31 927.343 1249.54C924.19 1250.77 920.806 1251.38 917.192 1251.38ZM1007.52 1133.03C1017.59 1133.03 1026.67 1135.14 1034.74 1139.37C1042.89 1143.53 1048.97 1149.29 1052.97 1156.68C1053.27 1157.29 1053.43 1157.95 1053.43 1158.64C1053.43 1159.71 1053 1160.68 1052.16 1161.52C1051.39 1162.29 1050.47 1162.68 1049.39 1162.68C1047.78 1162.68 1046.58 1161.94 1045.81 1160.48C1042.58 1154.33 1037.55 1149.56 1030.7 1146.18C1023.86 1142.8 1016.13 1141.1 1007.52 1141.1C1003.06 1141.1 998.326 1141.6 993.327 1142.6C988.405 1143.53 983.752 1144.99 979.369 1146.99C975.062 1148.99 971.525 1151.6 968.756 1154.83C966.064 1158.06 964.719 1161.98 964.719 1166.6C964.719 1170.83 966.064 1174.21 968.756 1176.75C971.525 1179.21 974.447 1181.09 977.523 1182.4C983.522 1184.86 989.982 1186.4 996.903 1187.02C1003.9 1187.55 1010.94 1188.05 1018.01 1188.52C1025.17 1188.98 1031.89 1190.32 1038.2 1192.55C1043.2 1194.24 1047.74 1197.05 1051.81 1200.97C1055.89 1204.9 1057.93 1210.2 1057.93 1216.89C1057.93 1224.97 1055.43 1231.54 1050.43 1236.62C1045.51 1241.69 1039.2 1245.42 1031.51 1247.81C1023.9 1250.12 1016.09 1251.27 1008.09 1251.27C996.249 1251.27 985.598 1249.08 976.139 1244.69C966.757 1240.23 959.797 1233.66 955.259 1224.97C954.952 1224.35 954.798 1223.74 954.798 1223.12C954.798 1222.05 955.182 1221.12 955.952 1220.35C956.797 1219.51 957.759 1219.08 958.835 1219.08C960.527 1219.08 961.719 1219.82 962.411 1221.28C966.257 1228.74 972.217 1234.27 980.292 1237.89C988.367 1241.43 997.634 1243.19 1008.09 1243.19C1014.63 1243.19 1021.09 1242.35 1027.47 1240.66C1033.86 1238.96 1039.16 1236.2 1043.39 1232.35C1047.7 1228.43 1049.85 1223.28 1049.85 1216.89C1049.85 1212.2 1048.35 1208.55 1045.35 1205.93C1042.43 1203.32 1039.16 1201.4 1035.55 1200.17C1029.16 1197.94 1022.44 1196.59 1015.36 1196.13C1008.28 1195.59 1001.25 1195.05 994.25 1194.51C987.252 1193.9 980.638 1192.36 974.409 1189.9C970.025 1188.13 965.949 1185.32 962.181 1181.48C958.489 1177.63 956.644 1172.67 956.644 1166.6C956.644 1160.6 958.182 1155.48 961.258 1151.25C964.411 1147.03 968.487 1143.56 973.486 1140.87C978.561 1138.18 984.06 1136.22 989.982 1134.99C995.98 1133.68 1001.82 1133.03 1007.52 1133.03Z" fill="black"/>
<path d="M750.001 561C711.462 561 680.292 592.17 680.292 630.709C680.292 669.247 711.462 700.417 750.001 700.417C788.54 700.417 819.71 669.247 819.71 630.709C819.71 592.269 788.54 561.1 750.001 561ZM750.001 680.5C722.516 680.5 700.21 658.194 700.21 630.709C700.21 603.224 722.516 580.917 750.001 580.917C777.486 580.917 799.792 603.224 799.792 630.709C799.792 658.194 777.486 680.5 750.001 680.5Z" fill="url(#paint0_radial_28_23)"/>
<path d="M960.321 381.75C937.417 381.65 918.894 401.069 920.487 424.272C921.782 443.89 937.715 459.824 957.333 461.317C980.636 463.01 1000.05 444.587 1000.05 421.684V421.584C1000.05 399.675 982.329 381.85 960.321 381.75ZM980.238 421.584C980.138 430.247 974.562 438.214 966.297 440.604C952.554 444.686 940.107 434.33 940.405 421.085C940.604 410.828 948.87 402.264 959.127 401.666C970.678 400.969 980.238 410.031 980.238 421.484V421.584Z" fill="url(#paint1_radial_28_23)"/>
<path d="M918.696 588.086C919.393 585.498 918.994 582.809 917.7 580.518L877.567 511.506C874.778 506.826 868.803 505.133 864.023 507.822L838.431 522.46C827.078 512.701 814.033 505.133 799.992 500.154V471.275C799.992 465.798 795.511 461.316 790.033 461.316H710.367C704.89 461.316 700.408 465.798 700.408 471.275V500.154C686.267 505.133 673.222 512.701 661.87 522.46L636.177 507.822C631.397 505.133 625.422 506.726 622.634 511.506L582.402 580.518C579.614 585.298 581.207 591.373 585.987 594.16L611.481 608.8C609.091 623.339 609.091 638.177 611.481 652.716L585.987 667.255C581.207 669.944 579.614 676.118 582.302 680.898C582.302 680.898 582.302 680.898 582.302 680.998L622.435 750.009C625.223 754.689 631.198 756.383 635.978 753.694L661.771 738.955C674.418 749.311 686.467 756.283 700.309 761.163V790.041C700.309 795.519 704.791 800 710.268 800H789.934C795.412 800 799.893 795.519 799.893 790.041V761.163C813.934 756.184 826.979 748.615 838.332 738.856L863.925 753.495C868.705 756.184 874.68 754.59 877.468 749.81L917.601 680.799C920.389 676.019 918.796 669.944 914.016 667.156L888.622 652.617C891.012 638.078 891.012 623.34 888.622 608.801L914.016 594.262C916.306 592.866 917.998 590.676 918.696 588.086ZM872.488 595.058C868.705 597.249 866.812 601.53 867.708 605.813C871.293 622.244 871.293 639.372 867.708 655.804C866.812 659.986 868.705 664.367 872.488 666.559L895.293 679.604L865.12 731.387L842.016 718.143C838.232 716.051 833.551 716.549 830.365 719.437C815.626 732.582 803.079 739.852 787.046 744.433C782.764 745.628 779.776 749.511 779.876 753.993V780.084H719.13V753.894C720.026 749.412 717.039 745.529 712.756 744.334C696.524 739.752 683.976 732.483 669.337 719.338C666.151 716.451 661.47 715.952 657.786 718.044L634.584 731.288L604.511 679.504L627.414 666.459C631.198 664.268 633.091 659.986 632.194 655.704C628.609 639.273 628.609 622.244 632.194 605.713C633.091 601.53 631.198 597.149 627.414 594.958L604.51 581.913L634.683 530.129L657.886 543.374C661.571 545.465 666.251 544.967 669.437 542.079C684.076 528.934 696.624 521.764 712.856 517.084C717.138 515.889 720.126 511.905 720.225 507.524V481.334H778.979V507.624C779.875 512.105 782.763 515.989 787.045 517.184C803.177 521.765 815.725 529.034 830.364 542.179C833.55 545.066 838.231 545.565 841.915 543.374L865.118 530.129L895.192 581.913L872.488 595.058Z" fill="url(#paint2_radial_28_23)"/>
<path d="M1053.53 440.504L1039.89 432.636C1040.49 428.952 1040.78 425.268 1040.78 421.583C1040.78 417.898 1040.49 414.214 1039.89 410.529L1053.73 402.662C1058.51 399.973 1060.1 393.799 1057.42 389.118C1057.42 389.118 1057.42 389.118 1057.42 389.018L1037.3 354.463C1034.61 349.783 1028.64 348.089 1023.86 350.778L1009.02 358.944C1002.84 354.363 996.072 350.679 989.002 347.791V331.957C988.902 326.481 978.944 322 978.944 322H939.11C939.11 322 929.151 326.481 928.255 331.959V347.892C922.479 350.681 916.205 354.365 910.529 358.846L896.985 350.88C892.205 348.091 886.13 349.685 883.343 354.465L863.426 389.02C860.638 393.8 862.331 399.875 867.111 402.663C867.111 402.663 867.111 402.663 867.211 402.663L881.053 410.629C880.556 414.214 880.257 417.899 880.257 421.583C880.257 425.267 880.556 428.952 881.053 432.636L867.211 440.504C862.431 443.193 860.837 449.366 863.526 454.048C863.526 454.048 863.526 454.047 863.526 454.147L883.542 488.702C884.837 490.993 887.027 492.686 889.617 493.284C892.206 493.981 894.895 493.582 897.186 492.189L910.431 484.321C916.107 488.802 922.381 492.487 929.152 495.275V511.209C929.052 516.686 939.011 521.067 939.011 521.067H978.845C978.845 521.067 988.803 516.686 987.907 511.209V495.275C995.973 492.387 1002.65 488.702 1008.82 484.121L1023.26 492.188C1027.94 494.876 1034.01 493.283 1036.7 488.603L1056.92 454.048C1059.9 449.466 1058.31 443.292 1053.53 440.504ZM1023.66 396.787C1019.97 398.979 1018.08 403.46 1019.07 407.741C1021.37 416.804 1021.27 426.264 1018.98 435.326C1017.98 439.609 1019.87 444.09 1023.66 446.28L1034.81 452.654L1024.55 470.081L1012.7 463.409C1008.92 461.317 1004.14 461.815 1000.95 464.803C994.875 470.479 985.515 475.756 975.855 478.744C971.673 480.039 968.884 483.923 968.984 488.204V501.25H948.071V488.404C948.968 484.022 946.179 480.238 941.997 478.944C933.134 476.056 925.068 471.375 918.295 465.002C915.009 461.915 910.129 461.417 906.345 463.707L895.69 470.081L885.732 452.952L896.984 446.48C900.868 444.289 902.76 439.807 901.764 435.526C900.669 431.045 900.072 426.365 900.072 421.684C900.072 417.003 900.669 412.422 901.665 407.841C902.661 403.559 900.769 399.077 896.885 396.887L885.533 390.415L895.392 373.187L906.445 379.66C910.229 381.851 915.109 381.352 918.295 378.266C925.067 371.892 933.133 367.212 941.997 364.324C946.179 363.03 948.968 359.146 949.067 354.864V341.916H967.988V354.763C968.884 359.144 971.772 362.929 975.855 364.223C985.614 367.31 994.975 372.588 1000.95 378.164C1004.14 381.152 1008.82 381.749 1012.6 379.658L1024.75 372.886L1034.91 390.314L1023.66 396.787Z" fill="url(#paint3_radial_28_23)"/>
<path d="M143.656 854.078C144.501 852.155 145.924 850.54 147.924 849.233C150 847.849 152.115 847.156 154.268 847.156C156.345 847.156 158.421 847.849 160.498 849.233C162.651 850.54 164.112 852.155 164.881 854.078L228.327 1001.27C229.019 1002.81 229.365 1004.39 229.365 1006C229.365 1009.16 228.212 1011.89 225.905 1014.19C223.674 1016.42 220.983 1017.54 217.83 1017.54C215.676 1017.54 213.562 1016.85 211.485 1015.46C209.409 1014.08 207.948 1012.42 207.102 1010.5L187.376 964.705L121.622 963.782L101.435 1010.62C100.666 1012.54 99.2433 1014.19 97.1669 1015.58C95.0905 1017.04 92.9756 1017.77 90.8223 1017.77C87.6692 1017.77 84.9391 1016.65 82.632 1014.42C80.4017 1012.12 79.2866 1009.39 79.2866 1006.23C79.2866 1004.62 79.6327 1003.04 80.3248 1001.5L143.656 854.078ZM154.268 887.877L131.543 940.826L177.34 941.403L154.268 887.877ZM368.947 953.169C368.947 961.859 367.332 970.319 364.102 978.547C360.949 986.776 356.181 994.044 349.797 1000.35C344.183 1005.81 337.724 1010.04 330.418 1013.04C323.112 1016.04 315.537 1017.54 307.692 1017.54C299.694 1017.54 292.581 1015.85 286.351 1012.46C280.199 1009.08 274.624 1004.5 269.625 998.735V1047.3C269.625 1050.45 268.471 1053.14 266.164 1055.37C263.934 1057.68 261.242 1058.84 258.089 1058.84C254.936 1058.84 252.206 1057.68 249.899 1055.37C247.669 1053.14 246.553 1050.45 246.553 1047.3V899.99C246.553 896.837 247.669 894.145 249.899 891.915C252.206 889.608 254.936 888.454 258.089 888.454C261.242 888.454 263.588 889.608 265.126 891.915C266.741 894.145 267.779 896.837 268.24 899.99L269.625 909.333C274.008 903.027 279.776 898.067 286.928 894.453C294.157 890.838 301.348 889.031 308.5 889.031C317.19 889.031 325.188 890.761 332.494 894.222C339.877 897.682 346.298 902.412 351.759 908.411C357.219 914.332 361.448 921.138 364.448 928.829C367.447 936.519 368.947 944.633 368.947 953.169ZM308.731 912.102C303.732 912.102 298.771 913.217 293.85 915.447C288.928 917.601 284.736 920.6 281.276 924.445C277.815 928.214 275.123 932.712 273.201 937.942C271.355 943.094 270.432 948.362 270.432 953.746C270.432 961.129 272.047 967.935 275.277 974.164C278.507 980.393 282.968 985.392 288.659 989.16C294.349 992.928 300.848 994.813 308.154 994.813C315.46 994.813 321.958 992.852 327.649 988.929C333.34 984.93 337.8 979.778 341.03 973.472C344.337 967.089 345.991 960.321 345.991 953.169C345.991 945.94 344.376 939.211 341.146 932.982C337.916 926.752 333.494 921.715 327.88 917.87C322.266 914.025 315.883 912.102 308.731 912.102ZM508.759 953.169C508.759 961.859 507.144 970.319 503.914 978.547C500.761 986.776 495.993 994.044 489.609 1000.35C483.995 1005.81 477.536 1010.04 470.23 1013.04C462.924 1016.04 455.349 1017.54 447.504 1017.54C439.506 1017.54 432.393 1015.85 426.163 1012.46C420.011 1009.08 414.436 1004.5 409.437 998.735V1047.3C409.437 1050.45 408.283 1053.14 405.976 1055.37C403.746 1057.68 401.054 1058.84 397.901 1058.84C394.748 1058.84 392.018 1057.68 389.711 1055.37C387.481 1053.14 386.365 1050.45 386.365 1047.3V899.99C386.365 896.837 387.481 894.145 389.711 891.915C392.018 889.608 394.748 888.454 397.901 888.454C401.054 888.454 403.4 889.608 404.938 891.915C406.553 894.145 407.591 896.837 408.052 899.99L409.437 909.333C413.82 903.027 419.588 898.067 426.74 894.453C433.969 890.838 441.16 889.031 448.312 889.031C457.002 889.031 465 890.761 472.306 894.222C479.689 897.682 486.11 902.412 491.571 908.411C497.031 914.332 501.26 921.138 504.26 928.829C507.259 936.519 508.759 944.633 508.759 953.169ZM448.543 912.102C443.544 912.102 438.583 913.217 433.662 915.447C428.74 917.601 424.548 920.6 421.088 924.445C417.627 928.214 414.935 932.712 413.013 937.942C411.167 943.094 410.244 948.362 410.244 953.746C410.244 961.129 411.859 967.935 415.089 974.164C418.319 980.393 422.78 985.392 428.471 989.16C434.161 992.928 440.66 994.813 447.966 994.813C455.272 994.813 461.77 992.852 467.461 988.929C473.152 984.93 477.612 979.778 480.842 973.472C484.149 967.089 485.803 960.321 485.803 953.169C485.803 945.94 484.188 939.211 480.958 932.982C477.728 926.752 473.306 921.715 467.692 917.87C462.078 914.025 455.695 912.102 448.543 912.102ZM536.56 846.695C540.251 846.695 543.212 847.925 545.442 850.386C547.672 852.77 548.749 855.385 548.672 858.231V1006.81C548.672 1009.89 547.442 1012.39 544.981 1014.31C542.597 1016.15 540.213 1017.08 537.828 1017.08C534.522 1017.08 531.638 1016 529.177 1013.85C526.793 1011.69 525.601 1008.92 525.601 1005.54V858.231C525.601 855.308 526.639 852.655 528.715 850.271C530.869 847.887 533.483 846.695 536.56 846.695ZM626.768 889.031C636.997 889.031 646.379 891.569 654.915 896.644C663.452 901.72 670.296 908.564 675.449 917.178C680.678 925.714 683.293 935.212 683.293 945.671C683.293 947.824 683.178 950.016 682.947 952.246C682.639 955.092 681.332 957.514 679.025 959.514C676.795 961.436 674.257 962.397 671.411 962.397L590.777 962.513C592.084 968.05 594.545 973.241 598.16 978.086C601.774 982.931 606.158 986.853 611.311 989.852C616.54 992.852 622.231 994.351 628.383 994.351C634.997 994.351 640.919 992.736 646.148 989.506C651.378 986.276 655.454 982.546 658.376 978.317C659.299 976.855 660.683 975.625 662.529 974.625C664.451 973.625 666.259 973.126 667.951 973.126C671.104 973.126 673.795 974.279 676.026 976.586C678.333 978.893 679.486 981.624 679.486 984.777C679.486 987.238 678.794 989.429 677.41 991.352C672.642 998.35 666.066 1004.43 657.684 1009.58C649.378 1014.65 639.727 1017.19 628.729 1017.19C619.885 1017.19 611.657 1015.46 604.043 1012C596.506 1008.54 589.931 1003.81 584.317 997.812C578.703 991.813 574.32 984.93 571.167 977.163C568.09 969.319 566.552 961.052 566.552 952.361C566.552 943.979 568.09 936.019 571.167 928.483C574.243 920.869 578.511 914.102 583.971 908.18C589.508 902.258 595.93 897.606 603.236 894.222C610.542 890.761 618.386 889.031 626.768 889.031ZM659.53 939.326C658.068 931.79 654.3 925.368 648.225 920.062C642.149 914.755 634.997 912.102 626.768 912.102C618.386 912.102 610.964 914.832 604.505 920.292C598.121 925.753 593.815 932.136 591.585 939.442L659.53 939.326ZM841.331 847.618C853.098 847.618 863.903 849.925 873.746 854.539C883.667 859.077 892.28 865.344 899.586 873.342C906.892 881.263 912.545 890.415 916.544 900.797C920.543 911.102 922.542 922.061 922.542 933.674C922.542 945.286 920.543 956.207 916.544 966.435C912.622 976.586 907.046 985.546 899.817 993.313C892.588 1001.08 884.013 1007.16 874.093 1011.54C864.249 1015.92 853.367 1018.11 841.447 1018.11C829.296 1018.11 818.26 1015.92 808.339 1011.54C798.419 1007.08 789.882 1000.96 782.73 993.198C775.655 985.353 770.195 976.317 766.35 966.089C762.504 955.784 760.582 944.748 760.582 932.982C760.582 921.523 762.581 910.679 766.58 900.451C770.656 890.223 776.309 881.148 783.538 873.227C790.844 865.229 799.38 858.961 809.147 854.424C818.991 849.886 829.719 847.618 841.331 847.618ZM841.793 871.035C830.411 871.035 820.336 873.996 811.569 879.918C802.879 885.839 796.035 893.683 791.036 903.45C786.114 913.14 783.653 923.753 783.653 935.289C783.653 943.133 785.153 950.631 788.152 957.783C791.151 964.935 795.304 971.318 800.61 976.932C805.917 982.469 812.031 986.853 818.952 990.083C825.95 993.236 833.41 994.813 841.331 994.813C849.252 994.813 856.712 993.159 863.71 989.852C870.786 986.545 877.015 982.085 882.398 976.471C887.858 970.857 892.127 964.551 895.203 957.552C898.279 950.477 899.817 943.248 899.817 935.865C899.817 923.945 897.202 913.102 891.973 903.335C886.82 893.491 879.86 885.647 871.093 879.802C862.326 873.958 852.559 871.035 841.793 871.035ZM1016.33 903.22C1016.33 909.372 1013.37 912.794 1007.44 913.486C1005.29 913.717 1002.56 913.025 999.254 911.41C995.947 909.718 992.602 908.872 989.218 908.872C982.528 908.872 977.221 910.602 973.299 914.063C969.377 917.447 966.57 922.023 964.878 927.791C963.186 933.558 962.34 940.018 962.34 947.17V1006.69C962.34 1010.08 961.302 1012.77 959.226 1014.77C957.226 1016.77 954.419 1017.77 950.805 1017.77C947.267 1017.77 944.46 1016.77 942.384 1014.77C940.307 1012.77 939.269 1010.04 939.269 1006.58V900.336C939.269 896.875 940.115 894.03 941.807 891.799C943.576 889.569 945.96 888.454 948.959 888.454C950.728 888.454 952.766 889.223 955.073 890.761C957.457 892.222 959.11 894.76 960.033 898.375L961.187 906.68C962.186 904.527 964.109 902.028 966.954 899.182C969.8 896.337 973.184 893.876 977.106 891.799C981.028 889.646 985.104 888.569 989.334 888.569C997.178 888.569 1003.64 889.492 1008.71 891.338C1013.79 893.107 1016.33 897.067 1016.33 903.22ZM1042.63 876.803C1039.09 876.803 1036.21 875.726 1033.98 873.573C1031.75 871.343 1030.59 868.613 1030.52 865.383L1030.29 856.616C1030.29 853.693 1031.59 851.348 1034.21 849.579C1036.82 847.733 1039.32 846.81 1041.71 846.81C1044.94 846.81 1047.63 847.925 1049.78 850.156C1052.01 852.386 1053.16 855.078 1053.24 858.231L1053.36 865.152C1053.36 868.151 1052.36 870.843 1050.36 873.227C1048.36 875.611 1045.78 876.803 1042.63 876.803ZM1030.17 898.605C1030.17 895.683 1031.4 893.299 1033.86 891.453C1036.32 889.608 1038.71 888.685 1041.01 888.685C1044.4 888.685 1047.28 889.684 1049.67 891.684C1052.05 893.683 1053.24 896.337 1053.24 899.644V899.759L1053.47 1006.58C1053.47 1009.66 1052.32 1012.27 1050.01 1014.42C1047.78 1016.58 1045.09 1017.65 1041.94 1017.65C1038.71 1017.65 1035.98 1016.58 1033.75 1014.42C1031.52 1012.19 1030.4 1009.54 1030.4 1006.46L1030.17 898.605ZM1180.48 888.223C1183.63 888.223 1186.32 889.377 1188.55 891.684C1190.86 893.914 1192.01 896.606 1192.01 899.759V899.99L1191.21 1010.16C1191.13 1018.77 1189.36 1026.88 1185.9 1034.5C1182.52 1042.11 1177.83 1048.84 1171.83 1054.68C1165.83 1060.53 1158.95 1065.1 1151.18 1068.41C1143.49 1071.72 1135.3 1073.37 1126.61 1073.37C1116.84 1073.37 1107.5 1071.22 1098.58 1066.91C1089.73 1062.68 1082.23 1056.72 1076.08 1049.03C1074.31 1046.8 1073.43 1044.34 1073.43 1041.65C1073.43 1038.49 1074.54 1035.76 1076.77 1033.46C1079.08 1031.23 1081.81 1030.11 1084.96 1030.11C1086.5 1030.11 1088.16 1030.53 1089.92 1031.38C1091.77 1032.23 1093.19 1033.3 1094.19 1034.61C1098.04 1039.38 1102.88 1043.19 1108.73 1046.03C1114.65 1048.88 1120.65 1050.3 1126.72 1050.3C1134.18 1050.3 1141.03 1048.45 1147.26 1044.76C1153.56 1041.07 1158.6 1036.15 1162.37 1030C1166.21 1023.84 1168.14 1017.11 1168.14 1009.81V998.504C1163.6 1005.58 1158.1 1010.46 1151.64 1013.15C1145.26 1015.77 1138.72 1017.08 1132.03 1017.08C1123.65 1017.08 1115.84 1015.27 1108.61 1011.65C1101.46 1008.04 1095.23 1003.16 1089.92 997.004C1084.62 990.852 1080.47 983.892 1077.47 976.125C1074.54 968.281 1073.08 960.206 1073.08 951.9C1073.08 943.594 1074.54 935.673 1077.47 928.137C1080.47 920.523 1084.62 913.755 1089.92 907.834C1095.23 901.912 1101.46 897.221 1108.61 893.76C1115.76 890.3 1123.57 888.569 1132.03 888.569C1139.34 888.569 1146.18 890.261 1152.56 893.645C1158.95 897.029 1164.37 902.181 1168.83 909.103L1170.56 899.874C1171.17 896.721 1172.17 893.991 1173.56 891.684C1174.94 889.377 1177.25 888.223 1180.48 888.223ZM1167.91 952.015C1167.91 945.017 1166.37 938.48 1163.29 932.405C1160.21 926.252 1155.99 921.254 1150.6 917.408C1145.3 913.563 1139.22 911.641 1132.38 911.641C1125.38 911.641 1119.15 913.563 1113.69 917.408C1108.3 921.177 1104.04 926.137 1100.88 932.289C1097.81 938.365 1096.27 944.902 1096.27 951.9C1096.27 958.821 1097.81 965.512 1100.88 971.972C1103.96 978.355 1108.19 983.623 1113.57 987.776C1118.96 991.929 1125.11 994.005 1132.03 994.005C1138.87 994.005 1144.99 991.967 1150.37 987.891C1155.83 983.815 1160.1 978.586 1163.18 972.203C1166.33 965.743 1167.91 959.014 1167.91 952.015ZM1226.97 876.803C1223.43 876.803 1220.55 875.726 1218.32 873.573C1216.09 871.343 1214.93 868.613 1214.86 865.383L1214.62 856.616C1214.62 853.693 1215.93 851.348 1218.55 849.579C1221.16 847.733 1223.66 846.81 1226.05 846.81C1229.28 846.81 1231.97 847.925 1234.12 850.156C1236.35 852.386 1237.5 855.078 1237.58 858.231L1237.7 865.152C1237.7 868.151 1236.7 870.843 1234.7 873.227C1232.7 875.611 1230.12 876.803 1226.97 876.803ZM1214.51 898.605C1214.51 895.683 1215.74 893.299 1218.2 891.453C1220.66 889.608 1223.05 888.685 1225.35 888.685C1228.74 888.685 1231.62 889.684 1234 891.684C1236.39 893.683 1237.58 896.337 1237.58 899.644V899.759L1237.81 1006.58C1237.81 1009.66 1236.66 1012.27 1234.35 1014.42C1232.12 1016.58 1229.43 1017.65 1226.28 1017.65C1223.05 1017.65 1220.32 1016.58 1218.09 1014.42C1215.86 1012.19 1214.74 1009.54 1214.74 1006.46L1214.51 898.605ZM1282.8 906.911C1286.95 902.835 1291.91 898.798 1297.68 894.799C1303.53 890.8 1310.29 888.8 1317.98 888.8C1328.06 888.8 1336.44 891.492 1343.13 896.875C1349.82 902.181 1354.74 908.372 1357.9 915.447C1360.36 921.061 1361.82 926.637 1362.28 932.174C1362.82 937.634 1363.09 942.787 1363.09 947.632V1005.89C1363.09 1009.04 1361.93 1011.77 1359.63 1014.08C1357.4 1016.31 1354.71 1017.42 1351.55 1017.42C1348.4 1017.42 1345.67 1016.31 1343.36 1014.08C1341.13 1011.77 1340.02 1009.04 1340.02 1005.89V947.632C1340.02 943.094 1339.79 938.903 1339.33 935.058C1338.94 931.213 1338.09 927.829 1336.79 924.907C1335.33 921.523 1333.06 918.524 1329.98 915.909C1326.91 913.217 1322.98 911.871 1318.21 911.871C1306.83 911.871 1298.07 916.216 1291.91 924.907C1285.84 933.597 1282.84 945.325 1282.92 960.09L1283.03 1006.12C1283.03 1009.27 1281.88 1012 1279.57 1014.31C1277.34 1016.54 1274.65 1017.65 1271.5 1017.65C1268.27 1017.65 1265.54 1016.54 1263.31 1014.31C1261.07 1012 1259.96 1009.23 1259.96 1006L1259.73 899.99C1259.73 896.837 1260.58 894.145 1262.27 891.915C1264.04 889.608 1266.5 888.454 1269.65 888.454C1272.8 888.454 1275.23 889.608 1276.92 891.915C1278.61 894.145 1279.92 896.837 1280.84 899.99L1282.8 906.911ZM1445.91 888.108C1451.61 888.108 1457.14 889.261 1462.53 891.569C1467.99 893.799 1472.83 896.644 1477.06 900.105C1481.37 903.489 1484.56 906.988 1486.64 910.602L1487.9 899.528C1487.9 896.375 1488.83 893.683 1490.67 891.453C1492.52 889.146 1495.02 887.993 1498.17 887.993C1501.32 887.993 1504.02 889.146 1506.25 891.453C1508.55 893.683 1509.71 896.375 1509.71 899.528V899.759L1509.48 1006.58C1509.48 1009.73 1508.32 1012.46 1506.02 1014.77C1503.78 1017 1501.09 1018.11 1497.94 1018.11C1494.79 1018.11 1492.29 1017 1490.44 1014.77C1488.6 1012.46 1487.67 1009.73 1487.67 1006.58L1486.4 997.35C1482.41 1004.19 1476.56 1009.31 1468.87 1012.69C1461.18 1016 1453.45 1017.65 1445.68 1017.65C1436.99 1017.65 1428.84 1015.96 1421.23 1012.58C1413.61 1009.12 1406.92 1004.39 1401.16 998.389C1395.39 992.39 1390.85 985.507 1387.54 977.74C1384.31 969.973 1382.7 961.782 1382.7 953.169C1382.7 944.633 1384.28 936.481 1387.43 928.713C1390.66 920.869 1395.12 913.909 1400.81 907.834C1406.58 901.682 1413.27 896.875 1420.88 893.414C1428.57 889.877 1436.92 888.108 1445.91 888.108ZM1485.71 952.938C1485.71 945.402 1483.94 938.48 1480.41 932.174C1476.95 925.868 1472.22 920.792 1466.22 916.947C1460.22 913.102 1453.37 911.179 1445.68 911.179C1438.15 911.179 1431.34 913.102 1425.27 916.947C1419.19 920.792 1414.38 925.906 1410.85 932.289C1407.31 938.596 1405.54 945.44 1405.54 952.823C1405.54 960.283 1407.35 967.204 1410.96 973.587C1414.58 979.893 1419.42 984.969 1425.5 988.814C1431.65 992.659 1438.42 994.582 1445.8 994.582C1453.18 994.582 1459.87 992.659 1465.87 988.814C1471.95 984.969 1476.75 979.893 1480.29 973.587C1483.91 967.204 1485.71 960.321 1485.71 952.938ZM1543.16 846.695C1546.85 846.695 1549.81 847.925 1552.04 850.386C1554.27 852.77 1555.35 855.385 1555.27 858.231V1006.81C1555.27 1009.89 1554.04 1012.39 1551.58 1014.31C1549.2 1016.15 1546.81 1017.08 1544.43 1017.08C1541.12 1017.08 1538.24 1016 1535.78 1013.85C1533.39 1011.69 1532.2 1008.92 1532.2 1005.54V858.231C1532.2 855.308 1533.24 852.655 1535.32 850.271C1537.47 847.887 1540.08 846.695 1543.16 846.695Z" fill="black"/>
<defs>
<radialGradient id="paint0_radial_28_23" cx="0" cy="0" r="1" gradientUnits="userSpaceOnUse" gradientTransform="translate(717.044 659.812) rotate(-41.8441) scale(144.071 143.977)">
<stop stop-color="#FF6600"/>
<stop offset="1" stop-color="#ED52C9"/>
</radialGradient>
<radialGradient id="paint1_radial_28_23" cx="0" cy="0" r="1" gradientUnits="userSpaceOnUse" gradientTransform="translate(941.392 438.22) rotate(-41.8487) scale(82.328 82.2756)">
<stop stop-color="#FF6600"/>
<stop offset="1" stop-color="#ED52C9"/>
</radialGradient>
<radialGradient id="paint2_radial_28_23" cx="0" cy="0" r="1" gradientUnits="userSpaceOnUse" gradientTransform="translate(670.11 701.358) rotate(-41.8987) scale(349.617 349.461)">
<stop stop-color="#FF6600"/>
<stop offset="1" stop-color="#ED52C9"/>
</radialGradient>
<radialGradient id="paint3_radial_28_23" cx="0" cy="0" r="1" gradientUnits="userSpaceOnUse" gradientTransform="translate(913.916 463.089) rotate(-42.1939) scale(204.323 204.45)">
<stop stop-color="#FF6600"/>
<stop offset="1" stop-color="#ED52C9"/>
</radialGradient>
</defs>
</svg>
